<svg xmlns="http://www.w3.org/2000/svg" viewBox="0 0 24 24" fill="#00C4CC">
  <path d="M12 0C5.373 0 0 5.373 0 12s5.373 12 12 12 12-5.373 12-12S18.627 0 12 0zm0 2.824a9.176 9.176 0 1 1 0 18.352A9.176 9.176 0 0 1 12 2.824zm3.298 4.853c-1.363 0-2.51.51-3.378 1.432-.52.561-.889 1.231-1.097 1.962h-.022a3.696 3.696 0 0 0-1.053-1.758C8.978 8.34 8.066 7.96 6.978 7.96c-1.008 0-1.877.336-2.542.985C3.8 9.544 3.43 10.41 3.43 11.452c0 1.047.373 1.952 1.08 2.62.677.638 1.628.99 2.728.99.994 0 1.89-.342 2.577-.988.52-.479.893-1.1 1.1-1.808h.016c.196.75.577 1.422 1.115 1.942.7.659 1.64 1.024 2.687 1.024 1.095 0 2.044-.362 2.748-1.047.735-.714 1.12-1.68 1.12-2.8 0-1.122-.375-2.037-1.085-2.663-.668-.587-1.607-.85-2.218-.85zm-.025 1.447c.396 0 .837.123 1.19.424.467.394.73 1.012.73 1.78 0 .767-.264 1.358-.745 1.761-.362.303-.795.45-1.244.45-.424 0-.843-.122-1.165-.382-.445-.36-.72-.94-.72-1.718 0-.797.25-1.393.72-1.786.35-.291.807-.53 1.234-.529zM7.29 9.38c.377 0 .753.11 1.053.352.422.335.673.876.673 1.613 0 .748-.25 1.294-.69 1.645-.312.25-.7.378-1.1.378-.391 0-.758-.113-1.043-.348-.407-.329-.647-.857-.647-1.573 0-.73.243-1.275.67-1.618.288-.233.67-.45 1.084-.449z"/>
</svg>
