<svg xmlns="http://www.w3.org/2000/svg" viewBox="0 0 24 24">
  <defs>
    <linearGradient id="cg1" x1="0%" y1="0%" x2="100%" y2="100%">
      <stop offset="0%" style="stop-color:#258FFA"/>
      <stop offset="100%" style="stop-color:#A259FF"/>
    </linearGradient>
  </defs>
  <path d="M12 2C8.5 2 6 4.5 5 7.5 3.5 8 2 9.5 2 11.5c0 2.5 2 4 4 4h.5c.5 2 2.5 4.5 5.5 4.5s5-2.5 5.5-4.5H18c2 0 4-1.5 4-4 0-2-1.5-3.5-3-4C18 4.5 15.5 2 12 2z" fill="url(#cg1)"/>
  <circle cx="9" cy="11" r="1.5" fill="white"/>
  <circle cx="15" cy="11" r="1.5" fill="white"/>
  <path d="M9.5 14.5c.7.8 1.6 1.2 2.5 1.2s1.8-.4 2.5-1.2" stroke="white" stroke-width="1.2" fill="none" stroke-linecap="round"/>
</svg>
